<?xml version="1.0" standalone="no"?>
<!DOCTYPE svg PUBLIC "-//W3C//DTD SVG 20010904//EN"
 "http://www.w3.org/TR/2001/REC-SVG-20010904/DTD/svg10.dtd">
<svg version="1.0" xmlns="http://www.w3.org/2000/svg"
 width="630.000000pt" height="630.000000pt" viewBox="0 0 630.000000 630.000000"
 preserveAspectRatio="xMidYMid meet">
<metadata>
Created by potrace 1.14, written by Peter Selinger 2001-2017
</metadata>
<g transform="translate(0.000000,630.000000) scale(0.100000,-0.100000)"
fill="#000000" stroke="none">
<path d="M2988 5925 c-2 -1 -48 -5 -103 -8 -113 -7 -219 -23 -246 -38 -10 -5
-22 -8 -26 -7 -7 2 -72 -7 -125 -17 -27 -6 -90 -26 -103 -34 -5 -3 -21 -7 -35
-9 -31 -4 -117 -31 -150 -47 -14 -7 -52 -21 -85 -31 -88 -28 -374 -172 -495
-251 -340 -219 -650 -530 -874 -875 -109 -168 -250 -464 -291 -610 -8 -29 -24
-80 -35 -113 -12 -33 -24 -80 -27 -105 -3 -25 -9 -50 -14 -55 -11 -15 -46
-213 -54 -305 -12 -155 -15 -186 -20 -210 -3 -14 -5 -110 -5 -213 -1 -137 -4
-189 -13 -191 -7 -2 -31 -9 -55 -15 -101 -28 -157 -126 -132 -229 23 -97 78
-132 220 -139 l98 -6 120 -361 c263 -786 414 -1229 436 -1279 25 -56 97 -151
155 -205 102 -93 199 -131 361 -141 63 -5 844 -7 1735 -6 1499 1 1624 3 1680
18 112 33 185 76 273 164 108 107 128 150 276 593 329 985 387 1158 403 1186
16 31 17 31 108 37 99 6 144 22 182 65 41 48 52 133 24 203 -18 46 -105 109
-151 109 -18 0 -20 6 -21 83 -3 266 -15 512 -28 535 -6 11 -10 34 -10 53 0 71
-35 269 -50 279 -4 3 -11 28 -15 55 -3 28 -15 77 -26 110 -43 136 -70 209 -85
231 -8 13 -15 29 -15 36 0 7 -29 72 -63 143 -147 300 -314 534 -551 770 -211
210 -442 383 -656 490 -41 20 -82 41 -90 46 -49 30 -184 89 -235 104 -33 10
-76 25 -95 35 -63 33 -316 100 -374 100 -19 0 -37 4 -40 9 -5 8 -27 12 -181
32 -67 9 -489 21 -497 14z m502 -390 c41 -4 82 -11 90 -15 8 -4 24 -6 35 -4
11 2 34 -3 50 -10 17 -8 59 -20 95 -26 36 -6 72 -14 80 -17 8 -3 20 -7 25 -9
278 -91 595 -257 780 -408 174 -142 387 -348 422 -407 9 -16 21 -29 25 -29 4
0 27 -30 51 -68 24 -37 60 -89 80 -115 20 -27 37 -54 37 -62 0 -7 7 -18 15
-25 8 -7 24 -31 35 -54 10 -22 25 -52 33 -66 24 -41 86 -176 102 -221 9 -23
19 -47 24 -53 5 -6 17 -42 25 -79 9 -38 22 -78 28 -90 7 -12 14 -29 15 -37 7
-44 52 -271 61 -305 9 -36 17 -205 24 -525 l2 -105 -78 -3 -78 -3 7 83 c10
105 9 144 -11 240 -59 297 -303 550 -586 608 -43 8 -58 16 -59 28 -4 160 -65
325 -167 454 -79 101 -139 122 -193 69 -42 -42 -39 -77 14 -141 107 -132 142
-208 154 -337 l6 -61 -49 -8 c-46 -6 -123 -30 -225 -69 l-45 -18 -95 36 c-51
19 -113 40 -136 46 -52 14 -59 27 -68 116 -9 89 -47 203 -92 278 -46 77 -137
173 -169 181 -38 10 -89 -10 -103 -40 -23 -52 -14 -76 62 -164 68 -78 109
-181 121 -302 6 -57 5 -59 -26 -58 -2 0 -37 -9 -78 -20 -290 -80 -496 -304
-560 -610 -10 -47 -20 -78 -23 -70 -3 8 -19 60 -36 115 -37 123 -76 189 -191
327 -97 118 -90 101 -123 310 -19 123 -56 205 -131 285 -66 72 -134 117 -219
148 l-62 23 -16 98 c-9 55 -24 123 -33 153 -9 30 -16 56 -16 57 0 1 27 -11 59
-28 127 -65 276 -25 335 89 22 43 21 47 -16 88 -49 56 -101 79 -183 79 -98 1
-170 -42 -224 -131 -10 -16 -14 -15 -39 17 -35 45 -106 116 -137 136 -44 29
-114 -5 -128 -63 -5 -24 12 -54 95 -162 53 -70 86 -148 95 -230 12 -108 15
-102 -58 -126 -159 -54 -290 -186 -333 -335 -18 -64 -23 -92 -31 -180 -8 -84
-40 -150 -111 -224 -64 -67 -115 -143 -158 -234 l-29 -61 -50 36 c-72 53 -133
71 -227 67 -89 -3 -136 -22 -201 -81 -50 -45 -76 -96 -94 -181 -15 -69 -11
-104 19 -189 l15 -43 -119 0 -120 0 -1 53 c-5 176 1 493 9 511 6 12 20 90 32
174 12 83 28 164 35 180 8 15 22 61 31 102 9 41 24 86 34 100 9 14 23 48 30
75 7 28 24 66 37 85 13 19 23 39 23 43 0 15 74 161 85 169 5 4 6 8 2 8 -5 0 3
14 17 31 14 17 26 36 26 43 0 7 9 24 21 37 11 13 55 71 96 129 143 201 326
385 535 538 31 23 60 47 63 53 4 6 23 18 42 25 19 8 72 39 117 69 46 30 90 55
98 55 8 0 31 11 51 24 19 13 46 27 58 31 13 4 51 20 84 35 33 15 87 36 120 45
33 9 69 22 80 29 11 7 52 19 90 26 39 7 91 21 118 30 26 10 55 17 65 15 9 -1
26 1 37 5 11 4 63 11 115 15 52 4 97 9 99 11 7 7 474 -3 561 -11z"/>
</g>
</svg>
